<svg width="321" height="321" viewBox="0 0 321 321" fill="none" xmlns="http://www.w3.org/2000/svg">
<rect width="321" height="321" fill="white"/>
<rect x="52" y="189.886" width="195" height="14" transform="rotate(-45 52 189.886)" fill="#D9A569"/>
<path d="M86 224.087L116.087 194L125.987 203.899L95.8995 233.987L86 224.087Z" fill="#D9A569"/>
<rect x="193.908" y="116.084" width="42.5514" height="14" transform="rotate(-45 193.908 116.084)" fill="#D9A569"/>
<rect x="95.8995" y="86" width="42.5454" height="14" transform="rotate(45 95.8995 86)" fill="#D9A569"/>
<rect x="202.899" y="193" width="43.2146" height="14" transform="rotate(45 202.899 193)" fill="#D9A569"/>
<rect x="120" y="257.886" width="195" height="14" transform="rotate(-45 120 257.886)" fill="#D9A569"/>
<rect x="61.8995" y="120" width="195" height="14" transform="rotate(45 61.8995 120)" fill="#D9A569"/>
<rect x="129.899" y="52" width="195" height="14" transform="rotate(45 129.899 52)" fill="#D9A569"/>
<path d="M134 160.163L160.163 134L186.326 160.163L160.163 186.326L134 160.163Z" fill="#D9A569"/>
<path d="M268 160.163L294.163 134L320.326 160.163L294.163 186.326L268 160.163Z" fill="#D9A569"/>
<path d="M8.8292e-07 160.163L26.163 134L52.3259 160.163L26.163 186.326L8.8292e-07 160.163Z" fill="#D9A569"/>
<path d="M134 294.163L160.163 268L186.326 294.163L160.163 320.326L134 294.163Z" fill="#D9A569"/>
<path d="M134 26.1629L160.163 -3.48765e-07L186.326 26.1629L160.163 52.3259L134 26.1629Z" fill="#D9A569"/>
</svg>
